# xmcd
#
# Track frame offsets: 
#        150
#        10919
#        23179
#        36484
#        52715
#        62593
#        74595
#        92491
#        102263
#        113650
#        130856
#        146439
#        163772
#
# Disc length: 2387 seconds
#
# Revision: 0
# Processed by: cddbd v1.5.2PL0 Copyright (c) Steve Scherf et al.
# Submitted via: ExactAudioCopy v0.99pb3
#
DISCID=a909510d
DTITLE=Grass Routes - Rural Route One
DYEAR=1900
DGENRE=Bluegrass
TTITLE0=Brother Amos
TTITLE1=Walk The Way The Winds Blow
TTITLE2=Clinch Mountain Backstep
TTITLE3=The Old Crossroads
TTITLE4=Wichita
TTITLE5=Blue Days, Black Nights
TTITLE6=Black Hawk
TTITLE7=Think Of What You've Done
TTITLE8=These Hills
TTITLE9=I've Just Seen The Rock Of Ages
TTITLE10=A Vision Of Mother
TTITLE11=As I Wait And Watch For You
TTITLE12=Zion's Hill
EXTD=
EXTT0=
EXTT1=
EXTT2=
EXTT3=
EXTT4=
EXTT5=
EXTT6=
EXTT7=
EXTT8=
EXTT9=
EXTT10=
EXTT11=
EXTT12=
PLAYORDER=
